g Gem
v 0.3 0 0
v 0.15 -1.135655E-08 -0.2598076
v 0 -0.312 1.363795E-08
v 0 -0.312 1.363795E-08
v 0.15 1.135655E-08 0.2598076
v 0.3 0 0
v 0 -0.312 1.363795E-08
v -0.15 1.135655E-08 0.2598077
v 0.15 1.135655E-08 0.2598076
v 0 -0.312 1.363795E-08
v -0.3 1.146411E-15 2.622683E-08
v -0.15 1.135655E-08 0.2598077
v 0 -0.312 1.363795E-08
v -0.15 -1.135655E-08 -0.2598077
v -0.3 1.146411E-15 2.622683E-08
v 0 -0.312 1.363795E-08
v 0.15 -1.135655E-08 -0.2598076
v -0.15 -1.135655E-08 -0.2598077
v 0.18 0.1365 -5.966605E-09
v 0.09 0.1365 -0.1558846
v 0.15 -1.135655E-08 -0.2598076
v 0.3 0 0
v 0.3 0 0
v 0.15 1.135655E-08 0.2598076
v 0.09 0.1365 0.1558846
v 0.18 0.1365 -5.966605E-09
v 0.15 1.135655E-08 0.2598076
v -0.15 1.135655E-08 0.2598077
v -0.08999999 0.1365 0.1558846
v 0.09 0.1365 0.1558846
v -0.15 1.135655E-08 0.2598077
v -0.3 1.146411E-15 2.622683E-08
v -0.18 0.1365 9.769495E-09
v -0.08999999 0.1365 0.1558846
v -0.3 1.146411E-15 2.622683E-08
v -0.15 -1.135655E-08 -0.2598077
v -0.08999999 0.1365 -0.1558846
v -0.18 0.1365 9.769495E-09
v -0.15 -1.135655E-08 -0.2598077
v 0.15 -1.135655E-08 -0.2598076
v 0.09 0.1365 -0.1558846
v -0.08999999 0.1365 -0.1558846
v 0 0.1365 -5.966605E-09
v 0.09 0.1365 -0.1558846
v 0.18 0.1365 -5.966605E-09
v 0.09 0.1365 0.1558846
v -0.08999999 0.1365 0.1558846
v -0.18 0.1365 9.769495E-09
v -0.08999999 0.1365 -0.1558846
vt 0.405438 0.9736447
vt 0.405438 0.9736447
vt 0.405438 0.9736447
vt 0.3449804 0.9719802
vt 0.3449804 0.9719802
vt 0.3449804 0.9719802
vt 0.2798721 0.9705311
vt 0.2798721 0.9705311
vt 0.2798721 0.9705311
vt 0.405438 0.9736447
vt 0.405438 0.9736447
vt 0.405438 0.9736447
vt 0.3449804 0.9719802
vt 0.3449804 0.9719802
vt 0.3449804 0.9719802
vt 0.2798721 0.9705311
vt 0.2798721 0.9705311
vt 0.2798721 0.9705311
vt 0.2243181 0.96875
vt 0.2243181 0.96875
vt 0.2243181 0.96875
vt 0.2243181 0.96875
vt 0.15582 0.96875
vt 0.15582 0.96875
vt 0.15582 0.96875
vt 0.15582 0.96875
vt 0.03082016 0.9687499
vt 0.03082016 0.9687499
vt 0.03082013 0.9687499
vt 0.03082016 0.9687499
vt 0.2243181 0.96875
vt 0.2243181 0.96875
vt 0.2243181 0.96875
vt 0.2243181 0.96875
vt 0.15582 0.96875
vt 0.15582 0.96875
vt 0.15582 0.96875
vt 0.15582 0.96875
vt 0.03082016 0.9687499
vt 0.03082016 0.9687499
vt 0.03082016 0.9687499
vt 0.03082016 0.9687499
vt 0.0950824 0.9712596
vt 0.0950824 0.9712596
vt 0.0950824 0.9712596
vt 0.0950824 0.9712596
vt 0.0950824 0.9712596
vt 0.0950824 0.9712596
vt 0.0950824 0.9712596
vn 0.6655009 -0.6399047 -0.3842271
vn 0.6655009 -0.6399047 -0.3842271
vn 0.6655009 -0.6399047 -0.3842271
vn 0.6655009 -0.6399047 0.3842272
vn 0.6655009 -0.6399047 0.3842272
vn 0.6655009 -0.6399047 0.3842272
vn 0 -0.6399047 0.7684543
vn 0 -0.6399047 0.7684543
vn 0 -0.6399047 0.7684543
vn -0.6655009 -0.6399047 0.3842271
vn -0.6655009 -0.6399047 0.3842271
vn -0.6655009 -0.6399047 0.3842271
vn -0.665501 -0.6399047 -0.3842271
vn -0.665501 -0.6399047 -0.3842271
vn -0.665501 -0.6399047 -0.3842271
vn 0 -0.6399048 -0.7684542
vn 0 -0.6399048 -0.7684542
vn 0 -0.6399048 -0.7684542
vn 0.6890514 0.6057593 -0.397824
vn 0.6890514 0.6057593 -0.397824
vn 0.6890514 0.6057593 -0.397824
vn 0.6890514 0.6057593 -0.397824
vn 0.6890513 0.6057593 0.397824
vn 0.6890513 0.6057593 0.397824
vn 0.6890513 0.6057593 0.397824
vn 0.6890513 0.6057593 0.397824
vn 0 0.6057594 0.7956479
vn 0 0.6057594 0.7956479
vn 0 0.6057594 0.7956479
vn 0 0.6057594 0.7956479
vn -0.6890512 0.6057594 0.397824
vn -0.6890512 0.6057594 0.397824
vn -0.6890512 0.6057594 0.397824
vn -0.6890512 0.6057594 0.397824
vn -0.6890513 0.6057594 -0.3978239
vn -0.6890513 0.6057594 -0.3978239
vn -0.6890513 0.6057594 -0.3978239
vn -0.6890513 0.6057594 -0.3978239
vn 0 0.6057594 -0.7956479
vn 0 0.6057594 -0.7956479
vn 0 0.6057594 -0.7956479
vn 0 0.6057594 -0.7956479
vn 0 1 0
vn 0 1 0
vn 0 1 0
vn 0 1 0
vn 0 1 0
vn 0 1 0
vn 0 1 0
g Gem_0
f 3/3/3 2/2/2 1/1/1
f 6/6/6 5/5/5 4/4/4
f 9/9/9 8/8/8 7/7/7
f 12/12/12 11/11/11 10/10/10
f 15/15/15 14/14/14 13/13/13
f 18/18/18 17/17/17 16/16/16
f 21/21/21 20/20/20 19/19/19
f 22/22/22 21/21/21 19/19/19
f 25/25/25 24/24/24 23/23/23
f 26/26/26 25/25/25 23/23/23
f 29/29/29 28/28/28 27/27/27
f 30/30/30 29/29/29 27/27/27
f 33/33/33 32/32/32 31/31/31
f 34/34/34 33/33/33 31/31/31
f 37/37/37 36/36/36 35/35/35
f 38/38/38 37/37/37 35/35/35
f 41/41/41 40/40/40 39/39/39
f 42/42/42 41/41/41 39/39/39
f 45/45/45 44/44/44 43/43/43
f 43/43/43 46/46/46 45/45/45
f 43/43/43 47/47/47 46/46/46
f 43/43/43 48/48/48 47/47/47
f 43/43/43 49/49/49 48/48/48
f 43/43/43 44/44/44 49/49/49
